<svg width="1727" height="254" viewBox="0 0 1727 254" fill="none" xmlns="http://www.w3.org/2000/svg">
<mask id="path-1-inside-1_59_495" fill="white">
<path d="M59.6377 164.682C59.6377 174.847 61.1063 183.15 64.043 189.588C66.9796 195.913 71.2716 200.544 76.9189 203.48C82.5665 206.417 89.4004 207.886 97.4199 207.886C105.552 207.886 112.385 206.417 117.92 203.48C123.454 200.544 127.634 195.913 130.458 189.588C133.282 183.15 134.693 174.847 134.693 164.682V3.55859H194.162V164.682C194.162 183.883 190.152 200.148 182.133 213.477C174.113 226.692 162.875 236.688 148.417 243.465C133.959 250.242 116.96 253.631 97.4199 253.631C78.1054 253.631 61.1064 250.242 46.4229 243.465C31.8522 236.688 20.4436 226.692 12.1982 213.477C4.06592 200.148 0 183.883 0 164.682V3.55859H59.6377V164.682ZM677.025 0C698.486 3.39397e-05 716.615 3.84089 731.411 11.5215C746.207 19.2021 757.671 29.7631 765.804 43.2041C773.936 56.5322 778.737 71.7238 780.205 88.7793H720.906C720.68 79.5175 719.099 71.7806 716.162 65.5684C713.225 59.2431 708.595 54.4986 702.27 51.3359C695.944 48.1734 687.53 46.5928 677.025 46.5928C669.684 46.5928 663.301 47.9474 657.88 50.6582C652.458 53.369 647.941 57.6617 644.326 63.5352C640.712 69.4085 638.001 77.0324 636.193 86.4072C634.499 95.6692 633.652 106.852 633.652 119.954V133.677C633.652 146.779 634.443 157.962 636.024 167.224C637.606 176.485 640.147 184.053 643.648 189.927C647.15 195.8 651.668 200.149 657.202 202.973C662.85 205.683 669.74 207.038 677.872 207.038C686.908 207.038 694.533 205.626 700.745 202.803C706.957 199.866 711.757 195.461 715.146 189.588C718.534 183.602 720.341 175.977 720.567 166.715H779.866C779.076 183.883 774.445 199.019 765.974 212.121C757.502 225.223 745.756 235.445 730.733 242.787C715.824 250.016 698.203 253.631 677.872 253.631C661.381 253.631 646.642 250.864 633.652 245.329C620.776 239.795 609.819 231.831 600.783 221.439C591.86 211.048 585.027 198.454 580.283 183.658C575.652 168.862 573.337 152.201 573.337 133.677V120.293C573.337 101.769 575.765 85.108 580.622 70.3115C585.592 55.4023 592.595 42.7517 601.631 32.3604C610.78 21.8561 621.736 13.8363 634.499 8.30176C647.262 2.76718 661.438 0 677.025 0ZM378.327 157.058V3.55859H437.627V250.242H378.327L291.073 96.7422V250.242H231.604V3.55859H291.073L378.327 157.058ZM538.435 250.242H479.136V3.55859H538.435V250.242ZM905.072 3.55859C924.048 3.55861 940.538 6.38191 954.544 12.0293C968.55 17.6768 979.337 26.0354 986.904 37.1045C994.585 48.1736 998.426 61.8406 998.426 78.1055C998.426 92.2242 996.223 104.028 991.818 113.516C987.413 123.003 981.257 130.853 973.351 137.065C967.96 141.284 961.947 144.989 955.312 148.182L1006.73 247.7V250.242H943.023L899.481 163.157H867.46V250.242H807.991V3.55859H905.072ZM1252.73 250.242H1188.69L1174.42 204.158H1092.96L1078.73 250.242H1014.86L1105.5 3.55859H1161.58L1252.73 250.242ZM1336.32 157.966L1370.15 3.55859H1420.63L1455.15 158.343L1483.49 3.55859H1542.28L1489.93 250.242H1428.43L1395.39 109.607L1363.03 250.242H1301.36L1249.01 3.55859H1307.97L1336.32 157.966ZM1625.13 204.497H1728.65V250.242H1565.66V3.55859H1625.13V204.497ZM1107.13 158.244H1160.21L1133.63 72.3926L1107.13 158.244ZM867.46 117.243H905.072C912.64 117.243 918.908 115.887 923.878 113.177C928.848 110.466 932.576 106.625 935.061 101.655C937.658 96.5726 938.957 90.53 938.957 83.5273C938.957 76.4116 937.658 70.3122 935.061 65.2295C932.463 60.1467 928.622 56.2499 923.539 53.5391C918.569 50.8284 912.414 49.4727 905.072 49.4727H867.46V117.243Z"/>
</mask>
<path d="M64.043 189.588L56.7644 192.908L56.7756 192.932L56.7869 192.957L64.043 189.588ZM76.9189 203.48L73.228 210.578L73.2281 210.578L76.9189 203.48ZM97.4199 207.886L97.4199 215.886L97.4199 215.886L97.4199 207.886ZM117.92 203.48L121.67 210.547L121.67 210.547L117.92 203.48ZM130.458 189.588L137.763 192.849L137.774 192.825L137.784 192.801L130.458 189.588ZM134.693 3.55859V-4.44141H126.693V3.55859H134.693ZM194.162 3.55859H202.162V-4.44141H194.162V3.55859ZM182.133 213.477L188.972 217.627L188.98 217.614L188.988 217.601L182.133 213.477ZM148.417 243.465L151.812 250.709L151.812 250.709L148.417 243.465ZM97.4199 253.631L97.4199 261.631L97.4199 261.631L97.4199 253.631ZM46.4229 243.465L43.049 250.719L43.0597 250.724L43.0704 250.729L46.4229 243.465ZM12.1982 213.477L5.36911 217.643L5.38988 217.677L5.411 217.711L12.1982 213.477ZM0 3.55859V-4.44141H-8V3.55859H0ZM59.6377 3.55859H67.6377V-4.44141H59.6377V3.55859ZM677.025 0L677.025 -8H677.025V0ZM731.411 11.5215L735.097 4.42111L735.097 4.42109L731.411 11.5215ZM765.804 43.2041L758.959 47.3454L758.967 47.3582L758.975 47.371L765.804 43.2041ZM780.205 88.7793V96.7793H788.923L788.176 88.0931L780.205 88.7793ZM720.906 88.7793L712.909 88.9744L713.099 96.7793H720.906V88.7793ZM716.162 65.5684L708.906 68.9372L708.918 68.9624L708.93 68.9874L716.162 65.5684ZM702.27 51.3359L705.847 44.1805L705.847 44.1805L702.27 51.3359ZM677.025 46.5928L677.025 38.5928H677.025V46.5928ZM657.88 50.6582L654.302 43.5028L654.302 43.5028L657.88 50.6582ZM644.326 63.5352L637.513 59.3424L637.513 59.3424L644.326 63.5352ZM636.193 86.4072L628.338 84.8929L628.331 84.9303L628.324 84.9677L636.193 86.4072ZM636.024 167.224L628.139 168.57L628.139 168.57L636.024 167.224ZM643.648 189.927L636.777 194.023L636.777 194.023L643.648 189.927ZM657.202 202.973L653.566 210.099L653.653 210.143L653.74 210.185L657.202 202.973ZM677.872 207.038L677.872 215.038H677.872V207.038ZM700.745 202.803L704.056 210.086L704.11 210.061L704.164 210.035L700.745 202.803ZM715.146 189.588L722.075 193.586L722.091 193.557L722.108 193.529L715.146 189.588ZM720.567 166.715V158.715H712.76L712.57 166.52L720.567 166.715ZM779.866 166.715L787.858 167.083L788.243 158.715H779.866V166.715ZM765.974 212.121L772.692 216.465L772.692 216.465L765.974 212.121ZM730.733 242.787L734.224 249.986L734.235 249.98L734.246 249.975L730.733 242.787ZM677.872 253.631L677.872 261.631H677.872V253.631ZM633.652 245.329L630.493 252.679L630.505 252.684L630.516 252.689L633.652 245.329ZM600.783 221.439L594.714 226.651L594.73 226.67L594.746 226.689L600.783 221.439ZM580.283 183.658L572.648 186.048L572.657 186.074L572.665 186.101L580.283 183.658ZM580.622 70.3115L573.033 67.7817L573.027 67.7991L573.021 67.8165L580.622 70.3115ZM601.631 32.3604L595.598 27.1061L595.594 27.1109L601.631 32.3604ZM634.499 8.30176L631.316 0.962103L631.316 0.962104L634.499 8.30176ZM378.327 157.058L371.372 161.011L386.327 187.32V157.058H378.327ZM378.327 3.55859V-4.44141H370.327V3.55859H378.327ZM437.627 3.55859H445.627V-4.44141H437.627V3.55859ZM437.627 250.242V258.242H445.627V250.242H437.627ZM378.327 250.242L371.372 254.196L373.672 258.242H378.327V250.242ZM291.073 96.7422L298.028 92.7888L283.073 66.4796V96.7422H291.073ZM291.073 250.242V258.242H299.073V250.242H291.073ZM231.604 250.242H223.604V258.242H231.604V250.242ZM231.604 3.55859V-4.44141H223.604V3.55859H231.604ZM291.073 3.55859L298.028 -0.394802L295.728 -4.44141H291.073V3.55859ZM538.435 250.242V258.242H546.435V250.242H538.435ZM479.136 250.242H471.136V258.242H479.136V250.242ZM479.136 3.55859V-4.44141H471.136V3.55859H479.136ZM538.435 3.55859H546.435V-4.44141H538.435V3.55859ZM905.072 3.55859L905.072 -4.44141H905.072V3.55859ZM954.544 12.0293L957.536 4.60977L957.536 4.60975L954.544 12.0293ZM986.904 37.1045L980.3 41.6196L980.316 41.6424L980.332 41.6651L986.904 37.1045ZM998.426 78.1055L1006.43 78.1055L1006.43 78.1055L998.426 78.1055ZM991.818 113.516L999.074 116.885L999.074 116.885L991.818 113.516ZM973.351 137.065L978.281 143.365L978.287 143.361L978.293 143.356L973.351 137.065ZM955.312 148.182L951.844 140.973L944.427 144.541L948.205 151.854L955.312 148.182ZM1006.73 247.7H1014.73V245.756L1013.84 244.028L1006.73 247.7ZM1006.73 250.242V258.242H1014.73V250.242H1006.73ZM943.023 250.242L935.868 253.82L938.079 258.242H943.023V250.242ZM899.481 163.157L906.637 159.58L904.426 155.157H899.481V163.157ZM867.46 163.157V155.157H859.46V163.157H867.46ZM867.46 250.242V258.242H875.46V250.242H867.46ZM807.991 250.242H799.991V258.242H807.991V250.242ZM807.991 3.55859V-4.44141H799.991V3.55859H807.991ZM1252.73 250.242V258.242H1264.22L1260.24 247.469L1252.73 250.242ZM1188.69 250.242L1181.05 252.608L1182.79 258.242H1188.69V250.242ZM1174.42 204.158L1182.07 201.793L1180.32 196.158H1174.42V204.158ZM1092.96 204.158V196.158H1087.06L1085.31 201.799L1092.96 204.158ZM1078.73 250.242V258.242H1084.64L1086.38 252.602L1078.73 250.242ZM1014.86 250.242L1007.35 247.483L1003.4 258.242H1014.86V250.242ZM1105.5 3.55859V-4.44141H1099.92L1097.99 0.799407L1105.5 3.55859ZM1161.58 3.55859L1169.09 0.785802L1167.16 -4.44141H1161.58V3.55859ZM1336.32 157.966L1328.46 159.411L1344.14 159.678L1336.32 157.966ZM1370.15 3.55859V-4.44141H1363.71L1362.33 1.84686L1370.15 3.55859ZM1420.63 3.55859L1428.44 1.81761L1427.05 -4.44141H1420.63V3.55859ZM1455.15 158.343L1447.34 160.084L1463.02 159.784L1455.15 158.343ZM1483.49 3.55859V-4.44141H1476.82L1475.62 2.11756L1483.49 3.55859ZM1542.28 3.55859L1550.11 5.21941L1552.16 -4.44141L1542.28 -4.44141V3.55859ZM1489.93 250.242V258.242H1496.41L1497.76 251.903L1489.93 250.242ZM1428.43 250.242L1420.64 252.072L1422.09 258.242H1428.43V250.242ZM1395.39 109.607L1403.17 107.778L1387.59 107.814L1395.39 109.607ZM1363.03 250.242V258.242H1369.4L1370.83 252.036L1363.03 250.242ZM1301.36 250.242L1293.53 251.903L1294.88 258.242H1301.36V250.242ZM1249.01 3.55859V-4.44141H1239.13L1241.18 5.21941L1249.01 3.55859ZM1307.97 3.55859L1315.84 2.11353L1314.63 -4.44141H1307.97V3.55859ZM1625.13 204.497H1617.13V212.497H1625.13V204.497ZM1728.65 204.497H1736.65V196.497H1728.65V204.497ZM1728.65 250.242V258.242H1736.65V250.242H1728.65ZM1565.66 250.242H1557.66V258.242H1565.66V250.242ZM1565.66 3.55859V-4.44141H1557.66V3.55859H1565.66ZM1625.13 3.55859H1633.13V-4.44141H1625.13V3.55859ZM1107.13 158.244L1099.49 155.884L1096.29 166.244H1107.13V158.244ZM1160.21 158.244V166.244H1171.06L1167.85 155.878L1160.21 158.244ZM1133.63 72.3926L1141.28 70.0269L1133.62 45.305L1125.99 70.0329L1133.63 72.3926ZM867.46 117.243H859.46V125.243H867.46V117.243ZM905.072 117.243L905.072 125.243L905.072 125.243L905.072 117.243ZM923.878 113.177L927.709 120.2L927.709 120.2L923.878 113.177ZM935.061 101.655L927.937 98.0145L927.921 98.046L927.905 98.0776L935.061 101.655ZM938.957 83.5273L946.957 83.5274V83.5273H938.957ZM935.061 65.2295L942.184 61.5887L942.184 61.5886L935.061 65.2295ZM923.539 53.5391L919.708 60.5623L919.741 60.5802L919.774 60.5979L923.539 53.5391ZM905.072 49.4727L905.072 41.4727H905.072V49.4727ZM867.46 49.4727V41.4727H859.46V49.4727H867.46ZM59.6377 164.682H51.6377C51.6377 175.53 53.1919 185.076 56.7644 192.908L64.043 189.588L71.3215 186.268C69.0207 181.224 67.6377 174.164 67.6377 164.682H59.6377ZM64.043 189.588L56.7869 192.957C60.3922 200.722 65.8615 206.747 73.228 210.578L76.9189 203.48L80.6099 196.383C76.6818 194.34 73.567 191.104 71.299 186.219L64.043 189.588ZM76.9189 203.48L73.2281 210.578C80.2736 214.242 88.4417 215.886 97.4199 215.886V207.886V199.886C90.3591 199.886 84.8594 198.593 80.6098 196.383L76.9189 203.48ZM97.4199 207.886L97.4199 215.886C106.482 215.886 114.688 214.252 121.67 210.547L117.92 203.48L114.17 196.414C110.083 198.582 104.622 199.886 97.4199 199.886L97.4199 207.886ZM117.92 203.48L121.67 210.547C128.948 206.685 134.293 200.622 137.763 192.849L130.458 189.588L123.153 186.327C120.976 191.204 117.961 194.402 114.17 196.414L117.92 203.48ZM130.458 189.588L137.784 192.801C141.204 185.003 142.693 175.499 142.693 164.682H134.693H126.693C126.693 174.196 125.359 181.296 123.132 186.375L130.458 189.588ZM134.693 164.682H142.693V3.55859H134.693H126.693V164.682H134.693ZM134.693 3.55859V11.5586H194.162V3.55859V-4.44141H134.693V3.55859ZM194.162 3.55859H186.162V164.682H194.162H202.162V3.55859H194.162ZM194.162 164.682H186.162C186.162 182.769 182.391 197.531 175.278 209.352L182.133 213.477L188.988 217.601C197.914 202.766 202.162 184.997 202.162 164.682H194.162ZM182.133 213.477L175.294 209.326C168.12 221.147 158.101 230.09 145.022 236.221L148.417 243.465L151.812 250.709C167.648 243.286 180.106 232.236 188.972 217.627L182.133 213.477ZM148.417 243.465L145.022 236.221C131.837 242.401 116.044 245.631 97.4199 245.631L97.4199 253.631L97.4199 261.631C117.877 261.631 136.082 258.082 151.812 250.709L148.417 243.465ZM97.4199 253.631V245.631C79.0414 245.631 63.2236 242.408 49.7753 236.201L46.4229 243.465L43.0704 250.729C58.9891 258.076 77.1694 261.631 97.4199 261.631V253.631ZM46.4229 243.465L49.7967 236.211C36.5853 230.066 26.3827 221.098 18.9855 209.242L12.1982 213.477L5.411 217.711C14.5046 232.286 27.1192 243.309 43.049 250.719L46.4229 243.465ZM12.1982 213.477L19.0274 209.31C11.8193 197.496 8 182.75 8 164.682H0H-8C-8 185.016 -3.68747 202.801 5.36911 217.643L12.1982 213.477ZM0 164.682H8V3.55859H0H-8V164.682H0ZM0 3.55859V11.5586H59.6377V3.55859V-4.44141H0V3.55859ZM59.6377 3.55859H51.6377V164.682H59.6377H67.6377V3.55859H59.6377ZM677.025 0L677.025 8C697.56 8.00003 714.347 11.6776 727.725 18.6219L731.411 11.5215L735.097 4.42109C718.882 -3.99579 699.411 -7.99996 677.025 -8L677.025 0ZM731.411 11.5215L727.725 18.6219C741.3 25.6683 751.635 35.2401 758.959 47.3454L765.804 43.2041L772.648 39.0628C763.708 24.2862 751.115 12.7359 735.097 4.42111L731.411 11.5215ZM765.804 43.2041L758.975 47.371C766.402 59.544 770.862 73.5222 772.235 89.4655L780.205 88.7793L788.176 88.0931C786.611 69.9254 781.47 53.5204 772.633 39.0372L765.804 43.2041ZM780.205 88.7793V80.7793H720.906V88.7793V96.7793H780.205V88.7793ZM720.906 88.7793L728.904 88.5842C728.66 78.5733 726.944 69.6573 723.395 62.1493L716.162 65.5684L708.93 68.9874C711.254 73.9039 712.701 80.4616 712.909 88.9744L720.906 88.7793ZM716.162 65.5684L723.418 62.1995C719.708 54.2078 713.767 48.1406 705.847 44.1805L702.27 51.3359L698.692 58.4914C703.422 60.8565 706.743 64.2784 708.906 68.9372L716.162 65.5684ZM702.27 51.3359L705.847 44.1805C698.004 40.2587 688.217 38.5928 677.025 38.5928L677.025 46.5928L677.025 54.5928C686.842 54.5928 693.885 56.0881 698.692 58.4914L702.27 51.3359ZM677.025 46.5928V38.5928C668.701 38.5928 661.046 40.1311 654.302 43.5028L657.88 50.6582L661.458 57.8136C665.557 55.7638 670.666 54.5928 677.025 54.5928V46.5928ZM657.88 50.6582L654.302 43.5028C647.37 46.9688 641.798 52.3788 637.513 59.3424L644.326 63.5352L651.139 67.7279C654.083 62.9446 657.546 59.7693 661.458 57.8136L657.88 50.6582ZM644.326 63.5352L637.513 59.3424C633.239 66.288 630.263 74.9079 628.338 84.8929L636.193 86.4072L644.049 87.9215C645.738 79.157 648.185 72.5291 651.139 67.7279L644.326 63.5352ZM636.193 86.4072L628.324 84.9677C626.517 94.8484 625.652 106.541 625.652 119.954H633.652H641.652C641.652 107.162 642.482 96.49 644.063 87.8468L636.193 86.4072ZM633.652 119.954H625.652V133.677H633.652H641.652V119.954H633.652ZM633.652 133.677H625.652C625.652 147.069 626.458 158.728 628.139 168.57L636.024 167.224L643.91 165.877C642.428 157.195 641.652 146.49 641.652 133.677H633.652ZM636.024 167.224L628.139 168.57C629.828 178.464 632.621 187.051 636.777 194.023L643.648 189.927L650.52 185.83C647.673 181.055 645.384 174.507 643.91 165.877L636.024 167.224ZM643.648 189.927L636.777 194.023C640.97 201.056 646.556 206.522 653.566 210.099L657.202 202.973L660.838 195.847C656.779 193.776 653.33 190.544 650.52 185.83L643.648 189.927ZM657.202 202.973L653.74 210.185C660.741 213.545 668.886 215.038 677.872 215.038L677.872 207.038L677.872 199.038C670.594 199.038 664.958 197.822 660.664 195.76L657.202 202.973ZM677.872 207.038V215.038C687.697 215.038 696.524 213.509 704.056 210.086L700.745 202.803L697.435 195.52C692.541 197.744 686.119 199.038 677.872 199.038V207.038ZM700.745 202.803L704.164 210.035C711.827 206.413 717.861 200.889 722.075 193.586L715.146 189.588L708.216 185.59C705.653 190.033 702.087 193.32 697.326 195.57L700.745 202.803ZM715.146 189.588L722.108 193.529C726.329 186.07 728.318 177.05 728.565 166.91L720.567 166.715L712.57 166.52C712.365 174.903 710.739 181.133 708.183 185.647L715.146 189.588ZM720.567 166.715V174.715H779.866V166.715V158.715H720.567V166.715ZM779.866 166.715L771.875 166.347C771.142 182.248 766.881 195.983 759.256 207.778L765.974 212.121L772.692 216.465C782.008 202.055 787.009 185.518 787.858 167.083L779.866 166.715ZM765.974 212.121L759.256 207.777C751.631 219.57 741.033 228.849 727.221 235.6L730.733 242.787L734.246 249.975C750.478 242.042 763.374 230.876 772.692 216.465L765.974 212.121ZM730.733 242.787L727.243 235.589C713.64 242.184 697.263 245.631 677.872 245.631V253.631V261.631C699.143 261.631 718.008 257.848 734.224 249.986L730.733 242.787ZM677.872 253.631L677.872 245.631C662.28 245.631 648.634 243.016 636.788 237.969L633.652 245.329L630.516 252.689C644.649 258.711 660.483 261.631 677.872 261.631L677.872 253.631ZM633.652 245.329L636.811 237.979C625.02 232.911 615.053 225.657 606.82 216.19L600.783 221.439L594.746 226.689C604.586 238.004 616.532 246.678 630.493 252.679L633.652 245.329ZM600.783 221.439L606.853 216.228C598.713 206.749 592.363 195.131 587.901 181.216L580.283 183.658L572.665 186.101C577.691 201.778 585.007 215.348 594.714 226.651L600.783 221.439ZM580.283 183.658L587.918 181.269C583.571 167.379 581.337 151.543 581.337 133.677H573.337H565.337C565.337 152.858 567.734 170.344 572.648 186.048L580.283 183.658ZM573.337 133.677H581.337V120.293H573.337H565.337V133.677H573.337ZM573.337 120.293H581.337C581.337 102.461 583.675 86.6618 588.223 72.8065L580.622 70.3115L573.021 67.8165C567.855 83.5543 565.337 101.078 565.337 120.293H573.337ZM580.622 70.3115L588.212 72.8414C592.895 58.7917 599.414 47.1012 607.668 37.6098L601.631 32.3604L595.594 27.1109C585.776 38.4021 578.289 52.0128 573.033 67.7817L580.622 70.3115ZM601.631 32.3604L607.663 37.6146C616.031 28.0077 626.014 20.7011 637.682 15.6414L634.499 8.30176L631.316 0.962104C617.458 6.97151 605.529 15.7044 595.598 27.1061L601.631 32.3604ZM634.499 8.30176L637.682 15.6414C649.326 10.5921 662.401 8 677.025 8V0V-8C660.475 -8 645.199 -5.05771 631.316 0.962103L634.499 8.30176ZM378.327 157.058H386.327V3.55859H378.327H370.327V157.058H378.327ZM378.327 3.55859V11.5586H437.627V3.55859V-4.44141H378.327V3.55859ZM437.627 3.55859H429.627V250.242H437.627H445.627V3.55859H437.627ZM437.627 250.242V242.242H378.327V250.242V258.242H437.627V250.242ZM378.327 250.242L385.282 246.289L298.028 92.7888L291.073 96.7422L284.118 100.696L371.372 254.196L378.327 250.242ZM291.073 96.7422H283.073V250.242H291.073H299.073V96.7422H291.073ZM291.073 250.242V242.242H231.604V250.242V258.242H291.073V250.242ZM231.604 250.242H239.604V3.55859H231.604H223.604V250.242H231.604ZM231.604 3.55859V11.5586H291.073V3.55859V-4.44141H231.604V3.55859ZM291.073 3.55859L284.118 7.51199L371.372 161.011L378.327 157.058L385.282 153.104L298.028 -0.394802L291.073 3.55859ZM538.435 250.242V242.242H479.136V250.242V258.242H538.435V250.242ZM479.136 250.242H487.136V3.55859H479.136H471.136V250.242H479.136ZM479.136 3.55859V11.5586H538.435V3.55859V-4.44141H479.136V3.55859ZM538.435 3.55859H530.435V250.242H538.435H546.435V3.55859H538.435ZM905.072 3.55859L905.072 11.5586C923.276 11.5586 938.707 14.2694 951.552 19.4488L954.544 12.0293L957.536 4.60975C942.369 -1.50558 924.82 -4.44139 905.072 -4.44141L905.072 3.55859ZM954.544 12.0293L951.552 19.4488C964.285 24.5829 973.733 32.0143 980.3 41.6196L986.904 37.1045L993.508 32.5894C984.94 20.0566 972.815 10.7706 957.536 4.60977L954.544 12.0293ZM986.904 37.1045L980.332 41.6651C986.905 51.1381 990.426 63.1273 990.426 78.1055L998.426 78.1055L1006.43 78.1055C1006.43 60.554 1002.27 45.2092 993.477 32.5438L986.904 37.1045ZM998.426 78.1055H990.426C990.426 91.4462 988.337 102.016 984.562 110.147L991.818 113.516L999.074 116.885C1004.11 106.04 1006.43 93.0023 1006.43 78.1055H998.426ZM991.818 113.516L984.562 110.147C980.666 118.539 975.284 125.372 968.408 130.775L973.351 137.065L978.293 143.356C987.23 136.334 994.161 127.467 999.074 116.885L991.818 113.516ZM973.351 137.065L968.42 130.765C963.515 134.604 957.999 138.011 951.844 140.973L955.312 148.182L958.781 155.39C965.895 151.968 972.404 147.965 978.281 143.365L973.351 137.065ZM955.312 148.182L948.205 151.854L999.62 251.372L1006.73 247.7L1013.84 244.028L962.42 144.51L955.312 148.182ZM1006.73 247.7H998.728V250.242H1006.73H1014.73V247.7H1006.73ZM1006.73 250.242V242.242H943.023V250.242V258.242H1006.73V250.242ZM943.023 250.242L950.179 246.665L906.637 159.58L899.481 163.157L892.326 166.735L935.868 253.82L943.023 250.242ZM899.481 163.157V155.157H867.46V163.157V171.157H899.481V163.157ZM867.46 163.157H859.46V250.242H867.46H875.46V163.157H867.46ZM867.46 250.242V242.242H807.991V250.242V258.242H867.46V250.242ZM807.991 250.242H815.991V3.55859H807.991H799.991V250.242H807.991ZM807.991 3.55859V11.5586H905.072V3.55859V-4.44141H807.991V3.55859ZM1252.73 250.242V242.242H1188.69V250.242V258.242H1252.73V250.242ZM1188.69 250.242L1196.33 247.876L1182.07 201.793L1174.42 204.158L1166.78 206.524L1181.05 252.608L1188.69 250.242ZM1174.42 204.158V196.158H1092.96V204.158V212.158H1174.42V204.158ZM1092.96 204.158L1085.31 201.799L1071.09 247.883L1078.73 250.242L1086.38 252.602L1100.6 206.518L1092.96 204.158ZM1078.73 250.242V242.242H1014.86V250.242V258.242H1078.73V250.242ZM1014.86 250.242L1022.37 253.001L1113.01 6.31778L1105.5 3.55859L1097.99 0.799407L1007.35 247.483L1014.86 250.242ZM1105.5 3.55859V11.5586H1161.58V3.55859V-4.44141H1105.5V3.55859ZM1161.58 3.55859L1154.08 6.33139L1245.23 253.015L1252.73 250.242L1260.24 247.469L1169.09 0.785802L1161.58 3.55859ZM1336.32 157.966L1344.14 159.678L1377.96 5.27033L1370.15 3.55859L1362.33 1.84686L1328.51 156.254L1336.32 157.966ZM1370.15 3.55859V11.5586H1420.63V3.55859V-4.44141H1370.15V3.55859ZM1420.63 3.55859L1412.83 5.29958L1447.34 160.084L1455.15 158.343L1462.95 156.602L1428.44 1.81761L1420.63 3.55859ZM1455.15 158.343L1463.02 159.784L1491.36 4.99962L1483.49 3.55859L1475.62 2.11756L1447.28 156.902L1455.15 158.343ZM1483.49 3.55859V11.5586H1542.28V3.55859V-4.44141H1483.49V3.55859ZM1542.28 3.55859L1534.46 1.89778L1482.1 248.581L1489.93 250.242L1497.76 251.903L1550.11 5.21941L1542.28 3.55859ZM1489.93 250.242V242.242H1428.43V250.242V258.242H1489.93V250.242ZM1428.43 250.242L1436.22 248.412L1403.17 107.778L1395.39 109.607L1387.6 111.437L1420.64 252.072L1428.43 250.242ZM1395.39 109.607L1387.59 107.814L1355.23 248.448L1363.03 250.242L1370.83 252.036L1403.18 111.401L1395.39 109.607ZM1363.03 250.242V242.242H1301.36V250.242V258.242H1363.03V250.242ZM1301.36 250.242L1309.18 248.581L1256.83 1.89778L1249.01 3.55859L1241.18 5.21941L1293.53 251.903L1301.36 250.242ZM1249.01 3.55859V11.5586H1307.97V3.55859V-4.44141H1249.01V3.55859ZM1307.97 3.55859L1300.1 5.00365L1328.46 159.411L1336.32 157.966L1344.19 156.521L1315.84 2.11353L1307.97 3.55859ZM1625.13 204.497V212.497H1728.65V204.497V196.497H1625.13V204.497ZM1728.65 204.497H1720.65V250.242H1728.65H1736.65V204.497H1728.65ZM1728.65 250.242V242.242H1565.66V250.242V258.242H1728.65V250.242ZM1565.66 250.242H1573.66V3.55859H1565.66H1557.66V250.242H1565.66ZM1565.66 3.55859V11.5586H1625.13V3.55859V-4.44141H1565.66V3.55859ZM1625.13 3.55859H1617.13V204.497H1625.13H1633.13V3.55859H1625.13ZM1107.13 158.244V166.244H1160.21V158.244V150.244H1107.13V158.244ZM1160.21 158.244L1167.85 155.878L1141.28 70.0269L1133.63 72.3926L1125.99 74.7583L1152.57 160.61L1160.21 158.244ZM1133.63 72.3926L1125.99 70.0329L1099.49 155.884L1107.13 158.244L1114.78 160.604L1141.28 74.7523L1133.63 72.3926ZM867.46 117.243V125.243H905.072V117.243V109.243H867.46V117.243ZM905.072 117.243L905.072 125.243C913.545 125.243 921.235 123.731 927.709 120.2L923.878 113.177L920.047 106.154C916.582 108.044 911.734 109.243 905.072 109.243L905.072 117.243ZM923.878 113.177L927.709 120.2C934.084 116.723 938.986 111.693 942.216 105.233L935.061 101.655L927.905 98.0776C926.165 101.557 923.612 104.209 920.047 106.154L923.878 113.177ZM935.061 101.655L942.184 105.296C945.474 98.8589 946.957 91.5132 946.957 83.5274L938.957 83.5273L930.957 83.5273C930.957 89.5469 929.842 94.2863 927.937 98.0145L935.061 101.655ZM938.957 83.5273H946.957C946.957 75.4517 945.483 68.0426 942.184 61.5887L935.061 65.2295L927.937 68.8703C929.834 72.5818 930.957 77.3715 930.957 83.5273H938.957ZM935.061 65.2295L942.184 61.5886C938.835 55.0356 933.815 49.9527 927.304 46.4802L923.539 53.5391L919.774 60.5979C923.429 62.5471 926.091 65.2579 927.937 68.8704L935.061 65.2295ZM923.539 53.5391L927.37 46.5159C920.927 43.0019 913.367 41.4727 905.072 41.4727L905.072 49.4727L905.072 57.4727C911.461 57.4727 916.211 58.6548 919.708 60.5623L923.539 53.5391ZM905.072 49.4727V41.4727H867.46V49.4727V57.4727H905.072V49.4727ZM867.46 49.4727H859.46V117.243H867.46H875.46V49.4727H867.46Z" fill="url(#paint0_linear_59_495)" mask="url(#path-1-inside-1_59_495)"/>
<defs>
<linearGradient id="paint0_linear_59_495" x1="864.568" y1="-1.63438e-08" x2="864" y2="485.5" gradientUnits="userSpaceOnUse">
<stop offset="0.242911" stop-color="white"/>
<stop offset="0.591241" stop-color="#CCEDFF" stop-opacity="0"/>
</linearGradient>
</defs>
</svg>
